# xmcd CD database file
#
# Track frame offsets:
#	150
#	11962
#	23655
#	33872
#	49202
#	61777
#	78167
#	90890
#	100927
#	118522
#	135190
#	151920
#	166807
#	177430
#	184267
#	199382
#	214012
#	229677
#	249587
#	264780
#	276902
#	288027
#	296200
#	308175
#	322205
#	333832
#
# Disc length: 4708 seconds
#
# Revision: 7
# Processed by: cddbd v1.5.2PL0 Copyright (c) Steve Scherf et al.
# Submitted via: CDex 1.70beta2
#
DISCID=6212621a
DTITLE=Nelson Willie - Honeysuckle Rose
DYEAR=1980
DGENRE=Country
TTITLE0=On The Road Again
TTITLE1=Pick Up The Tempo
TTITLE2=Heaven Or Hell
TTITLE3=Fiddlin' Around (Johnny Gimble)
TTITLE4=Blue Eyes Crying In The Rain
TTITLE5=Working Man Blues (Jody Payne)
TTITLE6=Jumpin' Cotton Eyed Joe (Johnny Gimble)
TTITLE7=Yesterday's Wine
TTITLE8=Whiskey River
TTITLE9=Bloody Mary Morning
TTITLE10=Loving You Was Easier (Than Anything I'll Ever Do Again) (w. Dyan Cannon)
TTITLE11=I Don't Do Windows (Hank Cochran)
TTITLE12=Coming Back To Texas (Kenneth Threadgill)
TTITLE13=If You Want Me To Love You I Will (Amy Irving)
TTITLE14=It's Not Supposed To Be That Way
TTITLE15=You Show Me Yours (And I'll Show You Mine) (w. Amy Irving)
TTITLE16=If You Could Touch Her At All
TTITLE17=Angel Flying Too Close To The Ground
TTITLE18=I Guess I've Come To Live Here In Your Eyes
TTITLE19=Angel Eyes (w. Emmylou Harris)
TTITLE20=So You Think You're A Cowboy (Emmylou Harris)
TTITLE21=Good Hearted Woman
TTITLE22=Make The World Go Away (Hank Cochran and Jeannie Seely)
TTITLE23=Two Sides To Every Story (Dyan Cannon)
TTITLE24=A Song For You
TTITLE25=Uncloudy Day (w. Dyan Cannon)
EXTD=YEAR: 1980
EXTT0=
EXTT1=
EXTT2=
EXTT3=
EXTT4=
EXTT5=
EXTT6=
EXTT7=
EXTT8=
EXTT9=
EXTT10=
EXTT11=
EXTT12=
EXTT13=
EXTT14=
EXTT15=
EXTT16=
EXTT17=
EXTT18=
EXTT19=
EXTT20=
EXTT21=
EXTT22=
EXTT23=
EXTT24=
EXTT25=
PLAYORDER=
